<svg xmlns="http://www.w3.org/2000/svg" viewBox="0 0 240.26 183.69"><defs><style>.cls-1{fill:#fff;}</style></defs><title>daylight-logo-white-no-tag-line</title><g id="Layer_3" data-name="Layer 3"><path class="cls-1" d="M134.23,17.89a38.13,38.13,0,0,0-25.3,66.68,19.49,19.49,0,0,1,5.18,12v8.63a.78.78,0,0,0,.78.79h38.78a.78.78,0,0,0,.78-.79V96.69a19.54,19.54,0,0,1,6.25-13.17l.38-.4a38.14,38.14,0,0,0-26.85-65.23m19.44,91.93H114.88a.79.79,0,0,0-.79.79V114a.79.79,0,0,0,.79.79h38.79a.79.79,0,0,0,.78-.79v-3.34a.78.78,0,0,0-.78-.79m0,8.85h-38.8a.77.77,0,0,0-.78.79c.05,1.3,0,4.13,3.58,4.13h33.2c3.39,0,3.54-2.83,3.58-4.13a.77.77,0,0,0-.78-.79" transform="translate(-13.46 -17.89)"></path><path class="cls-1" d="M149.61,144.79a3,3,0,1,1-3-2.84,2.9,2.9,0,0,1,3,2.84" transform="translate(-13.46 -17.89)"></path><rect class="cls-1" x="130.84" y="134.85" width="4.7" height="35.12"></rect><polygon class="cls-1" points="228.6 123.47 228.6 134.84 221.63 134.84 221.63 139.37 228.6 139.37 228.6 169.96 233.3 169.96 233.3 139.37 240.26 139.37 240.26 134.84 233.3 134.84 233.3 123.47 228.6 123.47"></polygon><path class="cls-1" d="M200.17,141.36h4.63v15.48a12.64,12.64,0,0,1,4.87-3.59,16.23,16.23,0,0,1,6.4-1.23q7.67,0,11.23,4.25T230.87,170v17.84h-4.64V169.93q0-7.56-2.41-10.58c-1.62-2-4.29-3-8-3a12.39,12.39,0,0,0-5.62,1.23,9.09,9.09,0,0,0-3.81,3.53,10.72,10.72,0,0,0-1.24,3.28,43.94,43.94,0,0,0-.33,6.39v17.08h-4.63Z" transform="translate(-13.46 -17.89)"></path><path class="cls-1" d="M160.32,170.11a14.09,14.09,0,0,0,4.11,10.3,13.92,13.92,0,0,0,23.65-9.79A14.18,14.18,0,0,0,184,160.39a13.05,13.05,0,0,0-9.67-4.26,13.56,13.56,0,0,0-9.84,4,13.4,13.4,0,0,0-4.13,10m3.42,20.61a8.72,8.72,0,0,0,3.85,4.77,12.91,12.91,0,0,0,6.82,1.71,13.21,13.21,0,0,0,10.05-4q3.78-4,3.78-10.67v-.92a18.25,18.25,0,0,1-6.1,5.25,16.06,16.06,0,0,1-7.46,1.77A19,19,0,0,1,161,183.36a18.49,18.49,0,0,1-.08-26.2,18.39,18.39,0,0,1,13.36-5.27,18.79,18.79,0,0,1,8,1.58,16.24,16.24,0,0,1,6,5v-5.75h4.6V182q0,9.22-4.81,14.38t-13.29,5.16a18.84,18.84,0,0,1-10.64-2.94,13.52,13.52,0,0,1-5.82-7.92Z" transform="translate(-13.46 -17.89)"></path><rect class="cls-1" x="118.32" y="123.47" width="4.7" height="46.49"></rect><polygon class="cls-1" points="82.18 134.84 87.58 134.84 98.89 163.35 110.77 134.84 116.24 134.84 96.45 181.36 91.41 181.36 96.31 169.91 82.18 134.84"></polygon><path class="cls-1" d="M87.48,170.06a13.38,13.38,0,0,0-4.17-9.74,13.13,13.13,0,0,0-9.59-4.18,13.65,13.65,0,0,0-10,4.17,14,14,0,0,0-4.15,10.33,13.33,13.33,0,0,0,4.12,9.89,13.62,13.62,0,0,0,9.94,4.06,13.15,13.15,0,0,0,9.75-4.27,14.16,14.16,0,0,0,4.15-10.26m.19,12.23A14.85,14.85,0,0,1,81.75,187a19.06,19.06,0,0,1-8.12,1.74,18.39,18.39,0,0,1-13.41-5.28,18.52,18.52,0,0,1,.12-26.22A18.92,18.92,0,0,1,74,152a17.93,17.93,0,0,1,7.72,1.64,16,16,0,0,1,5.92,4.74v-5.62h4.59v35.13H87.67Z" transform="translate(-13.46 -17.89)"></path><path class="cls-1" d="M46.08,170.64a14.1,14.1,0,0,0-4.15-10.27,13.2,13.2,0,0,0-9.74-4.23,13.67,13.67,0,0,0-9.94,4.06,13.31,13.31,0,0,0-4.13,9.86,14.11,14.11,0,0,0,4.15,10.35,13.64,13.64,0,0,0,10.05,4.18,13.2,13.2,0,0,0,9.6-4.18,13.45,13.45,0,0,0,4.16-9.77m.1-12.36V141.35h4.71v46.5H46.18v-5.31A16.91,16.91,0,0,1,40,187.13a18.84,18.84,0,0,1-7.77,1.64,18.28,18.28,0,0,1-13.34-5.38,18.48,18.48,0,0,1-.1-26.15A18.4,18.4,0,0,1,32.27,152a19,19,0,0,1,7.84,1.59,16,16,0,0,1,6.07,4.73" transform="translate(-13.46 -17.89)"></path></g></svg>