<?xml version="1.0" encoding="utf-8"?>
<!-- Generator: Adobe Illustrator 22.1.0, SVG Export Plug-In . SVG Version: 6.00 Build 0)  -->
<svg version="1.1" id="Calque_1" xmlns="http://www.w3.org/2000/svg" xmlns:xlink="http://www.w3.org/1999/xlink" x="0px" y="0px"
	 viewBox="0 0 48.1 85.7" style="enable-background:new 0 0 48.1 85.7;" xml:space="preserve">
<style type="text/css">
	.st0{fill:#1D1D1B;}
	.st1{fill:#B17F49;}
</style>
<g id="Groupe_28-2">
	<path id="Tracé_1-2" class="st0" d="M46.9,71.1V14.6L24.1,1.4L1.2,14.6v56.6l22.9,13.2L46.9,71.1z"/>
</g>
<g id="Groupe_29">
	<path id="Tracé_2-2" class="st1" d="M24.1,85.7L0,71.8V13.9L24.1,0l24.1,13.9v57.9L24.1,85.7z M2.3,70.5L24.1,83l21.7-12.5V15.2
		L24.1,2.7L2.3,15.2V70.5z"/>
</g>
<path id="Tracé_3" class="st1" d="M24.1,81.7l-0.2-0.1L3.3,69.2V16.5L24.1,4l20.8,12.5v52.8l-0.2,0.1L24.1,81.7z M4.1,68.8l20,12
	l20-12V16.9l-20-12l-20,12L4.1,68.8z"/>
<path id="Tracé_4" class="st1" d="M28,66.3l-5.3-20.7l-2.3,6.7v14l1.6,1.6h-9.8l1.6-1.6V18.5l-1.6-1.6h9.8l-1.6,1.6v19l7.2-19
	L26,16.8h9.4l-1.6,1.6l-6.9,18.3l7.6,29.5l1.6,1.6h-9.8L28,66.3z"/>
<path id="Tracé_7" class="st1" d="M26.3,76.8v-2.6l-2.2-1.3l-2.2,1.3v2.6l2.2,1.3L26.3,76.8z"/>
<path id="Tracé_8" class="st1" d="M26.3,10.8V8.2l-2.2-1.3l-2.2,1.3v2.6l2.2,1.3L26.3,10.8z"/>
</svg>
