<?xml version="1.0" encoding="UTF-8"?>
<svg id="Warstwa_1" data-name="Warstwa 1" xmlns="http://www.w3.org/2000/svg" width="84.666998728429348mm" height="24.694999629118168mm" viewBox="0 0 240.000944881890064 70.001574803149197">
  <defs>
    <style>
      .cls-1 {
        fill: #1d1d1b;
      }

      .cls-2 {
        fill: #2c9b47;
      }
    </style>
  </defs>
  <g>
    <path class="cls-2" d="m94.578946571628876,2.244511045048057c.676759503810899-.89615715585569,1.965384006711247-1.078486548123692,2.824467008646025-.429541500967389.896163049997995.676765397951385,1.078486548125511,1.965389900853552.404815574784152,2.864647375463392l-8.340523486038364,11.063010047764692c-.67367097333954.8961689441403-1.962295476241707,1.078492442265997-2.858458526237882.401732938456917-.859083001934778-.648950941298608-1.041406500062294-1.940663974670315-.364646996253214-2.83373849419695l8.334346425099284-11.066110366520661Z"/>
    <path class="cls-2" d="m72.278931400785041,2.244511045048057c-.676765397951385-.89615715585569-1.962295476241707-1.078486548123692-2.824472902790149-.429541500967389-.902346005077561.676765397951385-1.075398017650514,1.965389900853552-.401727044314612,2.864647375463392l8.337434955570643,11.063010047764692c.673670973337721.8961689441403,1.968472537184425,1.078492442265997,2.864641481319268.401732938456917.862171532406137-.648950941298608,1.032135014511368-1.940663974670315.361558465781854-2.83373849419695l-8.337434955567005-11.066110366520661Z"/>
    <path class="cls-2" d="m94.578946571628876,37.480217203143184c.676759503810899.89925747460984,1.965384006711247,1.081580972735537,2.824467008646025.438812986520134.896163049997995-.679848034278621,1.078486548125511-1.968472537182606.404815574784152-2.861547056709242l-8.340523486038364-11.072287427459742c-.67367097333954-.89308041366894-1.962295476241707-1.075403911794638-2.858458526237882-.398638513843252-.859083001934778.648945047158122-1.041406500062294,1.93139248911757-.364646996253214,2.830644069585105l8.334346425099284,11.063015941906997Z"/>
    <path class="cls-2" d="m72.278931400785041,37.480217203143184c-.676765397951385.89925747460984-1.962295476241707,1.081580972735537-2.824472902790149.438812986520134-.902346005077561-.679848034278621-1.075398017650514-1.968472537182606-.401727044314612-2.861547056709242l8.337434955570643-11.072287427459742c.673670973337721-.89308041366894,1.968472537184425-1.075403911794638,2.864641481319268-.398638513843252.862171532406137.648945047158122,1.032135014511368,1.93139248911757.361558465781854,2.830644069585105l-8.337434955567005,11.063015941906997Z"/>
    <path class="cls-2" d="m3.110979143205441,3.510572771923762c0-1.143381052837867.936339088302702-2.07353562042772,2.027189612574148-2.07353562042772,1.140293995904358,0,2.070452615716931.930154567589852,2.070452615716931,2.07353562042772v30.701419250819526h18.822578152743517c1.041407973596506,0,1.869589461944997.877620078894324,1.869589461944997,1.919026578954799,0,1.038317969590935-.828181488348491,1.863409453933855-1.869589461944997,1.863409453933855H5.138168755779589c-1.090850524271445,0-2.027189612574148-.933248992201698-2.027189612574148-2.076630045041384V3.510572771923762Z"/>
    <path class="cls-2" d="m30.40850774449882,22.800396515995089V3.511197550988072c0-1.143381052837867.930157514661914-2.073547408712329,2.014827017865173-2.073547408712329,1.143383999911748,0,2.076632992111627.930166355874462,2.076632992111627,2.073547408712329v19.032715370758524c0,7.833727464332696,4.202711942449241,12.237299981867181,11.097010406572736,12.237299981867181,6.687251986884803,0,10.939406940486151-4.045108476364476,10.939406940486151-11.980816387618688V3.511197550988072c0-1.143381052837867.936337522671238-2.073547408712329,2.076630045041384-2.073547408712329,1.084669503205077,0,2.024101450486341.930166355874462,2.024101450486341,2.073547408712329v18.980180882061177c0,10.577845527634054-6.069209926852636,16.072270503455002-15.145207413404933,16.072270503455002-8.967842925763762,0-15.083401439158479-5.494424975820948-15.083401439158479-15.763252420509161"/>
    <path class="cls-2" d="m107.511855523799568,3.510572771923762c0-1.143381052837867.936331628530752-2.07353562042772,2.030272617284936-2.07353562042772,1.134115461431065,0,2.067358559492277.930154567589852,2.067358559492277,2.07353562042772v32.669891788000314c0,1.140292522368327-.933243098061212,2.067364453630944-2.067358559492277,2.067364453630944-1.093940988754184,0-2.030272617284936-.927071931262617-2.030272617284936-2.067364453630944V3.510572771923762Z"/>
    <path class="cls-2" d="m120.050770546115928,19.954604501166614v-.108157507858778c0-10.006155001214211,7.521609062636344-18.770037033138578,18.569176458055153-18.770037033138578,11.044467076662841,0,18.454841889251838,8.652635993594231,18.454841889251838,18.664973949889827v.105063083248751c0,10.015432380907441-7.515443789980054,18.770048821423188-18.569188246336125,18.770048821423188-11.0413785461933,0-18.451741570501326-8.655730418207895-18.454830100970867-18.661891313564411m32.771866340775887,0v-.108157507858778c0-8.250903055140952-6.013592801828054-14.990689530719465-14.31703623980502-14.990689530719465-8.291077527814195,0-14.202678094439761,6.640894559128355-14.202678094439761,14.885626447470713v.105063083248751c0,8.244731888342358,6.019758074486163,14.98451836392087,14.317024451524048,14.98451836392087,8.294166058283736,0,14.202689882720733-6.628540437250194,14.202689882720733-14.876360856062092"/>
    <path class="cls-2" d="m164.990409568344148,3.561875384915766c0-1.087752139530494.936331628530752-2.024095556345856,2.027184086815396-2.024095556345856h.568596101806179c.939431947284902,0,1.508039837375691.46662744317473,2.073547408712329,1.19283290520616l22.036417347058887,28.111798440708299V3.459906726280678c0-1.090852458286463.883803033979348-2.024107344630465,2.021007025876315-2.024107344630465,1.090852458288282,0,1.971566961794451.933254886344002,1.971566961794451,2.024107344630465v32.774948977108579c0,1.08466950320144-.76637993471013,1.915943942623926-1.866497984403395,1.915943942623926h-.207049424308934c-.880714503509807,0-1.504939518621541-.516067507254775-2.119887154043681-1.245361499757564l-22.509221851170878-28.785469414047839v28.114886971181477c0,1.08466950320144-.880714503506169,2.014829964931778-2.024107344630465,2.014829964931778-1.090840670000034,0-1.971555173506204-.930160461730338-1.971555173506204-2.014829964931778V3.561875384915766Z"/>
    <path class="cls-2" d="m202.449215203104359,35.296973915479612l14.718733813409926-32.200169920215558c.512978976785234-1.140304310654756,1.294825140408648-1.813969389851991,2.592715234721254-1.813969389851991h.213226485248015c1.242272969291662,0,2.070447089961817.673665079197235,2.53707453313109,1.813969389851991l14.731111511860945,32.147635431523668c.148343768814811.367735526717297.253400957921258.732382522970511.253400957921258,1.044495030526377,0,1.081580972735537-.883791245694738,1.962295476241707-1.965389900855371,1.962295476241707-.988872011366766,0-1.659436771809851-.670582442868181-2.021007025876315-1.495668033068796l-3.788613093827735-8.359066457142035h-19.916518404734234l-3.785524563358194,8.461041009919427c-.355393193127384.874531548424784-1.03522354497909,1.393693480291404-1.974655492263992,1.393693480291404-1.032135014509549,0-1.860332711748924-.828180014810641-1.860332711748924-1.863409453932036,0-.312112507557686.049463640654722-.667488018258155.265778656372277-1.090846564144158m25.664344338474621-10.624208849530987l-8.35289529034344-18.562993502973768-8.3436061223656,18.562993502973768h16.69650141270904Z"/>
  </g>
  <g>
    <path class="cls-1" d="m10.875584329992307,55.345574999229939v1.56591796875h-3.29248046875v8.85302734375h-1.7705078125v-8.85302734375h-3.30712890625v-1.56591796875h8.3701171875Z"/>
    <path class="cls-1" d="m17.295994486242307,62.457391405479939h-5.5751953125c.0390625.69287109375.23681640625,1.2265625.5927734375,1.6025390625.35595703125.37548828125.83642578125.56298828125,1.44140625.56298828125.8681640625,0,1.45361328125-.40966796875,1.755859375-1.22900390625l1.638671875.146484375c-.23388671875.7900390625-.64599609375,1.39501953125-1.236328125,1.814453125s-1.3095703125.62939453125-2.158203125.62939453125c-1.1708984375,0-2.0927734375-.3759765625-2.765625-1.126953125-.67333984375-.7412109375-1.009765625-1.70703125-1.009765625-2.8974609375,0-1.15087890625.32666015625-2.09716796875.98046875-2.8388671875.6630859375-.7314453125,1.55078125-1.09716796875,2.6630859375-1.09716796875,1.1025390625,0,1.990234375.35595703125,2.6630859375,1.06787109375.67333984375.72216796875,1.009765625,1.70263671875,1.009765625,2.94140625v.42431640625Zm-3.62890625-3.11669921875c-.55615234375,0-1,.16552734375-1.33154296875.49755859375-.3515625.34130859375-.55126953125.8193359375-.60009765625,1.43408203125h3.8486328125c-.078125-.63427734375-.2783203125-1.1123046875-.60009765625-1.43408203125-.33154296875-.33203125-.7705078125-.49755859375-1.31689453125-.49755859375Z"/>
    <path class="cls-1" d="m19.428318704992307,64.930535936729939c-.63427734375-.70263671875-.951171875-1.66845703125-.951171875-2.8974609375,0-1.23876953125.32177734375-2.216796875.9658203125-2.93408203125.6435546875-.716796875,1.521484375-1.0751953125,2.6337890625-1.0751953125.9267578125,0,1.6826171875.23876953125,2.26806640625.716796875s.9462890625,1.15625,1.0830078125,2.0341796875h-1.65380859375c-.21435546875-.9169921875-.7705078125-1.37548828125-1.66796875-1.37548828125-.63427734375,0-1.1171875.2216796875-1.44873046875.66552734375s-.49755859375,1.09033203125-.49755859375,1.93896484375c0,.8291015625.16845703125,1.470703125.5048828125,1.92431640625s.81201171875.68017578125,1.4267578125.68017578125c.9072265625,0,1.46826171875-.48779296875,1.6826171875-1.462890625h1.65380859375c-.146484375.9072265625-.51220703125,1.60693359375-1.09765625,2.099609375s-1.34619140625.7392578125-2.28271484375.7392578125c-1.1123046875,0-1.9853515625-.3515625-2.619140625-1.0537109375Z"/>
    <path class="cls-1" d="m32.835056986242307,58.711297655479939c.44384765625.45849609375.666015625,1.0927734375.666015625,1.90234375v5.15087890625h-1.7119140625v-4.78515625c0-.9560546875-.4345703125-1.43408203125-1.302734375-1.43408203125-.53662109375,0-.970703125.18310546875-1.30224609375.548828125s-.49755859375.88525390625-.49755859375,1.55859375v4.11181640625h-1.7119140625v-10.4189453125h1.7119140625v3.8486328125c.52685546875-.7802734375,1.29248046875-1.17041015625,2.29736328125-1.17041015625.79052734375,0,1.4072265625.22900390625,1.85107421875.6875Z"/>
    <path class="cls-1" d="m41.405857767492307,58.711297655479939c.44384765625.45849609375.666015625,1.0927734375.666015625,1.90234375v5.15087890625h-1.7119140625v-4.78515625c0-.9560546875-.4345703125-1.43408203125-1.302734375-1.43408203125-.53662109375,0-.970703125.18310546875-1.30224609375.548828125s-.49755859375.88525390625-.49755859375,1.55859375v4.11181640625h-1.7119140625v-7.55078125h1.638671875l.029296875,1.0537109375c.52685546875-.8291015625,1.30712890625-1.24365234375,2.34130859375-1.24365234375.79052734375,0,1.4072265625.22900390625,1.85107421875.6875Z"/>
    <path class="cls-1" d="m44.116306986242307,57.014032030479939v-1.66845703125h1.7119140625v1.66845703125h-1.7119140625Zm0,8.75048828125v-7.55078125h1.7119140625v7.55078125h-1.7119140625Z"/>
    <path class="cls-1" d="m48.401463236242307,64.930535936729939c-.63427734375-.70263671875-.951171875-1.66845703125-.951171875-2.8974609375,0-1.23876953125.32177734375-2.216796875.9658203125-2.93408203125.6435546875-.716796875,1.521484375-1.0751953125,2.6337890625-1.0751953125.9267578125,0,1.6826171875.23876953125,2.26806640625.716796875s.9462890625,1.15625,1.0830078125,2.0341796875h-1.65380859375c-.21435546875-.9169921875-.7705078125-1.37548828125-1.66796875-1.37548828125-.63427734375,0-1.1171875.2216796875-1.44873046875.66552734375s-.49755859375,1.09033203125-.49755859375,1.93896484375c0,.8291015625.16845703125,1.470703125.5048828125,1.92431640625.336417616847029.45361328125.81201171875.68017578125,1.4267578125.68017578125.9072265625,0,1.46826171875-.48779296875,1.6826171875-1.462890625h1.65380859375c-.146484375.9072265625-.51220703125,1.60693359375-1.09765625,2.099609375s-1.34619140625.7392578125-2.28271484375.7392578125c-1.1123046875,0-1.9853515625-.3515625-2.619140625-1.0537109375Z"/>
    <path class="cls-1" d="m60.718357767490488,65.764520311729939c-.09765625-.39990234375-.1611328125-.69287109375-.1904296875-.8779296875-.57568359375.7216796875-1.39990234375,1.0830078125-2.47314453125,1.0830078125-.7900390625,0-1.4169921875-.20263671875-1.88037109375-.607421875s-.69482421875-.95361328125-.69482421875-1.646484375c0-1.26806640625.8095703125-2.03857421875,2.42919921875-2.31201171875l2.35595703125-.39501953125c.03857421875-.009765625.10693359375-.029296875.20458984375-.05859375v-.658203125c0-.66357421875-.49755859375-.9951171875-1.49267578125-.9951171875-.47802734375,0-.8388671875.0927734375-1.08251953125.27783203125-.244140625.185546875-.390625.48291015625-.43896484375.892578125l-1.60986328125-.0146484375c.146484375-1.619140625,1.20458984375-2.4287109375,3.17529296875-2.4287109375,2.078125,0,3.1171875.8681640625,3.1171875,2.6044921875v3.39501953125c0,.56591796875.10205078125,1.14599609375.30712890625,1.7412109375h-1.7265625Zm-.81982421875-1.58056640625c.380859375-.33154296875.57080078125-.74609375.57080078125-1.24365234375v-.7900390625l-2.09228515625.36572265625c-.81005859375.146484375-1.21484375.51708984375-1.21484375,1.1123046875,0,.33154296875.1171875.58984375.35107421875.775390625.234375.185546875.55615234375.27783203125.9658203125.27783203125.56591796875,0,1.0390625-.16552734375,1.41943359375-.49755859375Z"/>
    <path class="cls-1" d="m64.167576517490488,65.764520311729939v-10.4189453125h1.7119140625v10.4189453125h-1.7119140625Z"/>
    <path class="cls-1" d="m76.499607767490488,65.764520311729939c-.09765625-.39990234375-.1611328125-.69287109375-.1904296875-.8779296875-.57568359375.7216796875-1.39990234375,1.0830078125-2.47314453125,1.0830078125-.7900390625,0-1.4169921875-.20263671875-1.88037109375-.607421875s-.69482421875-.95361328125-.69482421875-1.646484375c0-1.26806640625.8095703125-2.03857421875,2.42919921875-2.31201171875l2.35595703125-.39501953125c.03857421875-.009765625.10693359375-.029296875.20458984375-.05859375v-.658203125c0-.66357421875-.49755859375-.9951171875-1.49267578125-.9951171875-.47802734375,0-.8388671875.0927734375-1.08251953125.27783203125-.244140625.185546875-.390625.48291015625-.43896484375.892578125l-1.60986328125-.0146484375c.146484375-1.619140625,1.20458984375-2.4287109375,3.17529296875-2.4287109375,2.078125,0,3.1171875.8681640625,3.1171875,2.6044921875v3.39501953125c0,.56591796875.10205078125,1.14599609375.30712890625,1.7412109375h-1.7265625Zm-.81982421875-1.58056640625c.380859375-.33154296875.57080078125-.74609375.57080078125-1.24365234375v-.7900390625l-2.09228515625.36572265625c-.81005859375.146484375-1.21484375.51708984375-1.21484375,1.1123046875,0,.33154296875.1171875.58984375.35107421875.775390625.234375.185546875.55615234375.27783203125.9658203125.27783203125.56591796875,0,1.0390625-.16552734375,1.41943359375-.49755859375Z"/>
    <path class="cls-1" d="m85.808689798740488,58.711297655479939c.44384765625.45849609375.666015625,1.0927734375.666015625,1.90234375v5.15087890625h-1.7119140625v-4.78515625c0-.9560546875-.4345703125-1.43408203125-1.302734375-1.43408203125-.53662109375,0-.970703125.18310546875-1.30224609375.548828125s-.49755859375.88525390625-.49755859375,1.55859375v4.11181640625h-1.7119140625v-7.55078125h1.638671875l.029296875,1.0537109375c.52685546875-.8291015625,1.30712890625-1.24365234375,2.34130859375-1.24365234375.79052734375,0,1.4072265625.22900390625,1.85107421875.6875Z"/>
    <path class="cls-1" d="m93.508885111240488,55.345574999229939h1.71240234375v10.4189453125h-1.50732421875l-.029296875-1.068359375c-.52685546875.8486328125-1.29736328125,1.2734375-2.31201171875,1.2734375-.9755859375,0-1.765625-.3759765625-2.37060546875-1.126953125s-.9072265625-1.7265625-.9072265625-2.9267578125c0-1.17041015625.29736328125-2.11181640625.892578125-2.82421875.60498046875-.7021484375,1.36572265625-1.05322265625,2.28271484375-1.05322265625.9755859375,0,1.7216796875.33642578125,2.23876953125,1.00927734375v-3.7021484375Zm-.45361328125,8.4287109375c.36083984375-.46826171875.54150390625-1.08251953125.54150390625-1.84375,0-.7705078125-.17578125-1.37548828125-.52685546875-1.814453125-.37060546875-.42919921875-.8388671875-.64404296875-1.40478515625-.64404296875-.57568359375,0-1.0341796875.21484375-1.37548828125.64404296875s-.51220703125,1.029296875-.51220703125,1.7998046875c0,.78076171875.1708984375,1.40234375.51220703125,1.86572265625s.7998046875.6953125,1.37548828125.6953125c.56591796875,0,1.029296875-.234375,1.39013671875-.70263671875Z"/>
    <path class="cls-1" d="m102.911717142490488,64.257196092979939h5.83837890625v1.50732421875h-7.60888671875v-10.4189453125h7.4775390625v1.50732421875h-5.70703125v2.765625h5.19482421875v1.52197265625h-5.19482421875v3.11669921875Z"/>
    <path class="cls-1" d="m120.554295267490488,58.711297655479939c.41015625.45849609375.61474609375,1.107421875.61474609375,1.9462890625v5.10693359375h-1.7119140625v-4.90234375c0-.40966796875-.10009765625-.7314453125-.30029296875-.96533203125-.19970703125-.234375-.4853515625-.3515625-.85595703125-.3515625-.47802734375,0-.86328125.18310546875-1.15576171875.548828125-.29296875.36572265625-.43896484375.89990234375-.43896484375,1.6025390625v4.06787109375h-1.71240234375v-4.90234375c0-.40966796875-.099609375-.7314453125-.2998046875-.96533203125-.2001953125-.234375-.4853515625-.3515625-.85595703125-.3515625-.46826171875,0-.8486328125.18798828125-1.1416015625.5634765625-.29248046875.37548828125-.43896484375.91455078125-.43896484375,1.6171875v4.03857421875h-1.7119140625v-7.55078125h1.6533203125l-.0146484375,1.0537109375c.47802734375-.8291015625,1.205078125-1.24365234375,2.1806640625-1.24365234375,1.06298828125,0,1.7705078125.44873046875,2.12158203125,1.34619140625.487783111784665-.8974609375,1.25830078125-1.34619140625,2.31201171875-1.34619140625.76123046875,0,1.34619140625.22900390625,1.755859375.6875Z"/>
    <path class="cls-1" d="m130.088474954990488,62.457391405479939h-5.5751953125c.0390625.69287109375.236328125,1.2265625.5927734375,1.6025390625.35595703125.37548828125.83642578125.56298828125,1.44140625.56298828125.8681640625,0,1.45361328125-.40966796875,1.755859375-1.22900390625l1.638671875.146484375c-.23388671875.7900390625-.64599609375,1.39501953125-1.236328125,1.814453125s-1.3095703125.62939453125-2.158203125.62939453125c-1.1708984375,0-2.0927734375-.3759765625-2.765625-1.126953125-.67333984375-.7412109375-1.009765625-1.70703125-1.009765625-2.8974609375,0-1.15087890625.32666015625-2.09716796875.98046875-2.8388671875.6630859375-.7314453125,1.55078125-1.09716796875,2.6630859375-1.09716796875,1.1025390625,0,1.990234375.35595703125,2.6630859375,1.06787109375.67333984375.72216796875,1.009765625,1.70263671875,1.009765625,2.94140625v.42431640625Zm-3.62890625-3.11669921875c-.55615234375,0-1,.16552734375-1.33154296875.49755859375-.3515625.34130859375-.55126953125.8193359375-.60009765625,1.43408203125h3.8486328125c-.078125-.63427734375-.2783203125-1.1123046875-.60009765625-1.43408203125-.33154296875-.33203125-.7705078125-.49755859375-1.31689453125-.49755859375Z"/>
    <path class="cls-1" d="m135.879002298740488,58.023797655479939v1.6240234375c-.29248046875-.01953125-.44384765625-.029296875-.45361328125-.029296875-.60498046875,0-1.09033203125.19775390625-1.4560546875.5927734375s-.5537109375.94873046875-.5634765625,1.66064453125v3.892578125h-1.7119140625v-7.55078125h1.638671875l-.029296875,1.37548828125c.400390625-1.0732421875,1.09765625-1.609375,2.0927734375-1.609375.166015625,0,.32666015625.0146484375.48291015625.0439453125Z"/>
    <path class="cls-1" d="m142.343846048740488,58.213739061729939h1.55078125v7.4775390625c0,1.0634765625-.31201171875,1.8681640625-.9365234375,2.41455078125-.6240234375.54638671875-1.501953125.8193359375-2.6337890625.8193359375-.9951171875,0-1.77783203125-.2021484375-2.3486328125-.60693359375-.57080078125-.4052734375-.89990234375-.99755859375-.98779296875-1.7783203125h1.60986328125c.14599609375.72216796875.716796875,1.0830078125,1.7119140625,1.0830078125.66357421875,0,1.14404296875-.14892578125,1.44140625-.4462890625s.4462890625-.76806640625.4462890625-1.412109375v-.9951171875c-.52685546875.71240234375-1.26318359375,1.068359375-2.20947265625,1.068359375-.9755859375,0-1.7607421875-.37060546875-2.35595703125-1.1123046875-.60498046875-.7412109375-.9072265625-1.697265625-.9072265625-2.8681640625,0-1.16064453125.30224609375-2.08740234375.9072265625-2.7802734375.60498046875-.6923828125,1.38525390625-1.03857421875,2.34130859375-1.03857421875,1.0634765625,0,1.84375.41455078125,2.34130859375,1.24365234375l.029296875-1.068359375Zm-.65869140625,5.47265625c.36083984375-.45849609375.54150390625-1.06298828125.54150390625-1.814453125,0-.7705078125-.17578125-1.36572265625-.52685546875-1.78515625-.37060546875-.42919921875-.8388671875-.64404296875-1.40478515625-.64404296875-.57568359375,0-1.0341796875.21484375-1.37548828125.64404296875s-.51220703125,1.01953125-.51220703125,1.7705078125c0,.77099609375.1708984375,1.3828125.51220703125,1.83642578125s.7998046875.6806640625,1.37548828125.6806640625c.56591796875,0,1.029296875-.2294921875,1.39013671875-.68798828125Z"/>
    <path class="cls-1" d="m152.816990579990488,62.457391405479939h-5.57568359375c.0390625.69287109375.23681640625,1.2265625.5927734375,1.6025390625.35595703125.37548828125.83642578125.56298828125,1.44091796875.56298828125.8681640625,0,1.4541015625-.40966796875,1.755859375-1.22900390625l1.6396484375.146484375c-.234375.7900390625-.646484375,1.39501953125-1.236328125,1.814453125-.5908203125.41943359375-1.310546875.62939453125-2.1591796875.62939453125-1.17041015625,0-2.09228515625-.3759765625-2.76513671875-1.126953125-.67333984375-.7412109375-1.009765625-1.70703125-1.009765625-2.8974609375,0-1.15087890625.32666015625-2.09716796875.98046875-2.8388671875.6630859375-.7314453125,1.55078125-1.09716796875,2.66259765625-1.09716796875,1.1025390625,0,1.990234375.35595703125,2.6640625,1.06787109375.6728515625.72216796875,1.009765625,1.70263671875,1.009765625,2.94140625v.42431640625Zm-3.6298828125-3.11669921875c-.5556640625,0-.99951171875.16552734375-1.3310546875.49755859375-.3515625.34130859375-.55126953125.8193359375-.60009765625,1.43408203125h3.84814453125c-.078125-.63427734375-.27734375-1.1123046875-.599609375-1.43408203125-.33203125-.33203125-.7705078125-.49755859375-1.3173828125-.49755859375Z"/>
    <path class="cls-1" d="m160.282810892490488,58.711297655479939c.4443359375.45849609375.666015625,1.0927734375.666015625,1.90234375v5.15087890625h-1.7119140625v-4.78515625c0-.9560546875-.4345703125-1.43408203125-1.302734375-1.43408203125-.5361328125,0-.970703125.18310546875-1.3017578125.548828125-.33203125.36572265625-.498046875.88525390625-.498046875,1.55859375v4.11181640625h-1.7119140625v-7.55078125h1.638671875l.029296875,1.0537109375c.52734375-.8291015625,1.3076171875-1.24365234375,2.341796875-1.24365234375.7900390625,0,1.4072265625.22900390625,1.8505859375.6875Z"/>
    <path class="cls-1" d="m163.519139017490488,64.930535936729939c-.6337890625-.70263671875-.951171875-1.66845703125-.951171875-2.8974609375,0-1.23876953125.322265625-2.216796875.9658203125-2.93408203125.64453125-.716796875,1.5224609375-1.0751953125,2.634765625-1.0751953125.9267578125,0,1.6826171875.23876953125,2.267578125.716796875s.9462890625,1.15625,1.0830078125,2.0341796875h-1.6533203125c-.21484375-.9169921875-.7705078125-1.37548828125-1.6689453125-1.37548828125-.6337890625,0-1.1162109375.2216796875-1.4482421875.66552734375s-.4970703125,1.09033203125-.4970703125,1.93896484375c0,.8291015625.16796875,1.470703125.5048828125,1.92431640625.3359375.45361328125.8115234375.68017578125,1.4267578125.68017578125.9072265625,0,1.4677734375-.48779296875,1.6826171875-1.462890625h1.6533203125c-.146484375.9072265625-.5126953125,1.60693359375-1.09765625,2.099609375s-1.345703125.7392578125-2.2822265625.7392578125c-1.1123046875,0-1.9853515625-.3515625-2.6201171875-1.0537109375Z"/>
    <path class="cls-1" d="m175.748631204990488,58.213739061729939h1.7998046875l-3.263671875,8.95556640625c-.205078125.59521484375-.4658203125,1.00732421875-.7822265625,1.236328125-.3173828125.2294921875-.7587890625.34423828125-1.3251953125.34423828125h-1.3017578125v-1.44873046875h.86328125c.322265625,0,.5654296875-.05859375.7314453125-.17578125s.3076171875-.33154296875.4248046875-.64404296875l.204090287697909-.5556640625-2.984363725197909-7.7119140625h1.873046875l1.66796875,4.7119140625.205078125,1.0244140625,1.8876953125-5.736328125Z"/>
    <path class="cls-1" d="m184.507420267490488,64.198602342979939h5.2529296875v1.56591796875h-7.0234375v-10.4189453125h1.7705078125v8.85302734375Z"/>
    <path class="cls-1" d="m191.205662454990488,57.014032030479939v-1.66845703125h1.7119140625v1.66845703125h-1.7119140625Zm0,8.75048828125v-7.55078125h1.7119140625v7.55078125h-1.7119140625Z"/>
    <path class="cls-1" d="m200.158787454990488,58.213739061729939h1.5517578125v7.4775390625c0,1.0634765625-.3125,1.8681640625-.9365234375,2.41455078125-.625.54638671875-1.5029296875.8193359375-2.6337890625.8193359375-.9951171875,0-1.7783203125-.2021484375-2.3486328125-.60693359375-.5712890625-.4052734375-.900390625-.99755859375-.98828125-1.7783203125h1.609375c.146484375.72216796875.7177734375,1.0830078125,1.712890625,1.0830078125.6630859375,0,1.1435546875-.14892578125,1.4404296875-.4462890625.2978515625-.29736328125.447265625-.76806640625.447265625-1.412109375v-.9951171875c-.52734375.71240234375-1.263671875,1.068359375-2.2099609375,1.068359375-.9755859375,0-1.7607421875-.37060546875-2.3564453125-1.1123046875-.6044921875-.7412109375-.9072265625-1.697265625-.9072265625-2.8681640625,0-1.16064453125.302734375-2.08740234375.9072265625-2.7802734375.60546875-.6923828125,1.3857421875-1.03857421875,2.341796875-1.03857421875,1.0634765625,0,1.84375.41455078125,2.3408203125,1.24365234375l.029296875-1.068359375Zm-.658203125,5.47265625c.361328125-.45849609375.541015625-1.06298828125.541015625-1.814453125,0-.7705078125-.1748046875-1.36572265625-.5263671875-1.78515625-.37109375-.42919921875-.8388671875-.64404296875-1.404296875-.64404296875-.576171875,0-1.0341796875.21484375-1.3759765625.64404296875s-.51171875,1.01953125-.51171875,1.7705078125c0,.77099609375.169921875,1.3828125.51171875,1.83642578125s.7998046875.6806640625,1.3759765625.6806640625c.5654296875,0,1.0283203125-.2294921875,1.3896484375-.68798828125Z"/>
    <path class="cls-1" d="m209.600193704990488,58.711297655479939c.4443359375.45849609375.666015625,1.0927734375.666015625,1.90234375v5.15087890625h-1.7119140625v-4.78515625c0-.9560546875-.4345703125-1.43408203125-1.302734375-1.43408203125-.5361328125,0-.970703125.18310546875-1.3017578125.548828125-.33203125.36572265625-.498046875.88525390625-.498046875,1.55859375v4.11181640625h-1.7119140625v-10.4189453125h1.7119140625v3.8486328125c.52734375-.7802734375,1.29296875-1.17041015625,2.2978515625-1.17041015625.7900390625,0,1.4072265625.22900390625,1.8505859375.6875Z"/>
    <path class="cls-1" d="m214.476170267490488,59.442742967979939v4.2001953125c0,.27294921875.0537109375.46337890625.16015625.5703125.107421875.107421875.29296875.1611328125.556640625.1611328125h.833984375v1.39013671875h-1.361328125c-.6728515625,0-1.158203125-.14892578125-1.4560546875-.4462890625-.296875-.29736328125-.4462890625-.78271484375-.4462890625-1.4560546875v-4.40478515625l-1.08203125.0439453125v-1.28759765625l1.08203125.0439453125v-2.37060546875h1.712890625v2.37060546875l1.55078125-.0439453125v1.28759765625l-1.55078125-.05859375Z"/>
    <path class="cls-1" d="m217.414646829990488,57.014032030479939v-1.66845703125h1.7119140625v1.66845703125h-1.7119140625Zm0,8.75048828125v-7.55078125h1.7119140625v7.55078125h-1.7119140625Z"/>
    <path class="cls-1" d="m227.033787454990488,58.711297655479939c.4443359375.45849609375.666015625,1.0927734375.666015625,1.90234375v5.15087890625h-1.7119140625v-4.78515625c0-.9560546875-.4345703125-1.43408203125-1.302734375-1.43408203125-.5361328125,0-.970703125.18310546875-1.3017578125.548828125-.33203125.36572265625-.498046875.88525390625-.498046875,1.55859375v4.11181640625h-1.7119140625v-7.55078125h1.638671875l.029296875,1.0537109375c.52734375-.8291015625,1.3076171875-1.24365234375,2.341796875-1.24365234375.7900390625,0,1.4072265625.22900390625,1.8505859375.6875Z"/>
    <path class="cls-1" d="m234.938084329990488,58.213739061729939h1.5517578125v7.4775390625c0,1.0634765625-.3125,1.8681640625-.9365234375,2.41455078125-.625.54638671875-1.5029296875.8193359375-2.6337890625.8193359375-.9951171875,0-1.7783203125-.2021484375-2.3486328125-.60693359375-.5712890625-.4052734375-.900390625-.99755859375-.98828125-1.7783203125h1.609375c.146484375.72216796875.7177734375,1.0830078125,1.712890625,1.0830078125.6630859375,0,1.1435546875-.14892578125,1.4404296875-.4462890625.2978515625-.29736328125.447265625-.76806640625.447265625-1.412109375v-.9951171875c-.52734375.71240234375-1.263671875,1.068359375-2.2099609375,1.068359375-.9755859375,0-1.7607421875-.37060546875-2.3564453125-1.1123046875-.6044921875-.7412109375-.9072265625-1.697265625-.9072265625-2.8681640625,0-1.16064453125.302734375-2.08740234375.9072265625-2.7802734375.60546875-.6923828125,1.3857421875-1.03857421875,2.341796875-1.03857421875,1.0634765625,0,1.84375.41455078125,2.3408203125,1.24365234375l.029296875-1.068359375Zm-.658203125,5.47265625c.361328125-.45849609375.541015625-1.06298828125.541015625-1.814453125,0-.7705078125-.1748046875-1.36572265625-.5263671875-1.78515625-.37109375-.42919921875-.8388671875-.64404296875-1.404296875-.64404296875-.576171875,0-1.0341796875.21484375-1.3759765625.64404296875s-.51171875,1.01953125-.51171875,1.7705078125c0,.77099609375.169921875,1.3828125.51171875,1.83642578125s.7998046875.6806640625,1.3759765625.6806640625c.5654296875,0,1.0283203125-.2294921875,1.3896484375-.68798828125Z"/>
  </g>
</svg>