<?xml version="1.0" encoding="utf-8"?>
<!-- Generator: Adobe Illustrator 24.0.3, SVG Export Plug-In . SVG Version: 6.00 Build 0)  -->
<svg version="1.1" id="Laag_1" xmlns="http://www.w3.org/2000/svg" xmlns:xlink="http://www.w3.org/1999/xlink" x="0px" y="0px"
	 viewBox="0 0 392.1 92" style="enable-background:new 0 0 392.1 132.8;" xml:space="preserve">
<style type="text/css">
	.st0{fill:#0046AA;}
</style>
<g>
	<path class="st0" d="M23.9,24c10-9.9,26.2-9.9,36.1,0.1C70,34,70,50.2,60,60.2c-10,9.9-26.2,9.9-36.1-0.1
		C13.9,50.1,14,33.9,23.9,24 M12.3,12.3C-4.1,28.6-4.1,55.2,12.2,71.6C28.5,87.9,55.1,88,71.5,71.7c16.4-16.3,16.4-42.9,0.1-59.3
		C55.3-3.9,28.7-4,12.3,12.3 M110.4,39.8V15h20.5c6.2,0,10.5,0.9,13.1,2.8c2.5,1.9,3.8,5.1,3.8,9.6c0,4.2-1.3,7.3-3.9,9.4
		c-2.6,2.1-6.6,3.1-11.9,3.1H110.4z M110.4,84.1V54.7h21.5c7.4,0,12.8-0.4,16.4-1.2c3.6-0.8,6.7-2.2,9.4-4.1c3.3-2.4,5.7-5.3,7.3-9
		c1.6-3.6,2.4-7.9,2.4-13c0-5.1-1-9.7-2.9-13.6c-2-4-4.8-7.2-8.7-9.6c-2.3-1.4-5.4-2.5-9.2-3.2c-3.9-0.7-9-1-15.5-1H92.8v84.1H110.4
		z M196.3,15h20.5c6.2,0,10.5,0.9,13.1,2.8c2.5,1.9,3.8,5.1,3.8,9.6c0,4.2-1.3,7.3-3.9,9.4c-2.6,2.1-6.6,3.1-11.9,3.1h-21.6V15z
		 M178.6,84.1h17.7V54.7h21.5c7.4,0,12.8-0.4,16.4-1.2c3.6-0.8,6.7-2.2,9.5-4.1c3.3-2.4,5.7-5.3,7.3-9c1.6-3.6,2.4-7.9,2.4-13
		c0-5.1-1-9.7-3-13.6c-2-4-4.8-7.2-8.7-9.6c-2.3-1.4-5.3-2.5-9.2-3.2c-3.9-0.7-9-1-15.5-1h-38.4V84.1z M184.6,129.9v-21.8h-3.2v24.3
		h19.4v-2.5H184.6z M210.9,108.1h-3.2v24.3h3.2V108.1z M241.6,121.9v6c-2,1.4-5,2.4-8.3,2.4c-7,0-11.3-4.3-11.3-10.1v-0.1
		c0-5.4,4.5-10,10.9-10c4,0,6.5,1.1,8.7,2.8l2.1-2.1c-2.9-2-5.8-3.2-10.7-3.2c-8.6,0-14.4,5.9-14.4,12.6v0.1c0,7,5.6,12.5,14.6,12.5
		c4.8,0,8.8-1.7,11.5-3.7v-9.7h-11.8v2.5H241.6z M255.8,132.4v-11h16.5v11h3.2v-24.3h-3.2v10.8h-16.5v-10.8h-3.2v24.3H255.8z
		 M295.1,132.4v-21.8h9.6v-2.5h-22.5v2.5h9.6v21.8H295.1z M280.3,82.1c3.8,1.3,9.6,2,17.5,2h22.4v-14h-20.8c-4.3,0-7.7-0.4-10.1-1.3
		s-4.5-2.3-6.2-4.2c-1.1-1.2-1.8-2.8-2.2-4.8c-0.4-2-0.7-5.5-0.7-10.4V0h-17.7v50c0,6.6,0.6,11.8,1.7,15.4c1.1,3.6,3.1,6.9,5.9,9.8
		C273,78.5,276.5,80.8,280.3,82.1 M314.9,108.1h-3.2v24.3h3.2V108.1z M327.1,132.4v-20l18.5,20h2.6v-24.3H345v19.5l-18-19.5h-3v24.3
		H327.1z M323.1,43.5c0,7.6,1.1,14.3,3.2,19.8c2.2,5.5,5.4,10,9.7,13.4c3.3,2.7,6.9,4.6,10.6,5.7c3.8,1.1,9,1.7,15.5,1.7h29.9V69.5
		h-29c-7.1,0-12.3-1.6-15.3-4.8c-3.1-3.2-4.6-8.5-4.7-15.8h49V34.1h-48.9c0.3-6.6,2.1-11.5,5.4-14.7c3.3-3.2,8.1-4.8,14.5-4.8h29V0
		h-29.4c-13.5,0-23.5,3.5-29.9,10.6C326.4,17.7,323.1,28.7,323.1,43.5 M378.5,121.9v6c-2,1.4-5,2.4-8.3,2.4c-7,0-11.3-4.3-11.3-10.1
		v-0.1c0-5.4,4.5-10,10.9-10c4,0,6.5,1.1,8.7,2.8l2.1-2.1c-2.9-2-5.8-3.2-10.7-3.2c-8.6,0-14.4,5.9-14.4,12.6v0.1
		c0,7,5.6,12.5,14.6,12.5c4.8,0,8.8-1.7,11.5-3.7v-9.7h-11.8v2.5H378.5z M392.1,128.4h-4.4v4.4h4.4V128.4z"/>
</g>
</svg>
