<svg xmlns="http://www.w3.org/2000/svg" width="287" height="131" viewBox="0 0 287 130.7" role="img" aria-label="Pixlum">
  <style>
    .a { fill: #000000; }
    .b { fill: #f7ba42; }
    .c { fill: #663a8c; }
  </style>
  <path d="M18.6 59.8c3.1 0 5.8-2.5 5.8-5.7 0-3.2-2.6-5.8-5.8-5.8h-7.1v11.6H18.6zM18.6 36.7c9.5 0 17.3 7.8 17.3 17.3 0 9.5-7.7 17.3-17.3 17.3h-7.1v23H0V36.7H18.6z" class="a"/>
  <rect x="44.9" y="36.7" width="11.5" height="57.5" class="a"/>
  <polygon points="98.8 65.5 119.3 94.3 105.2 94.3 91.8 75.5 78.4 94.3 64.2 94.3 84.7 65.5 64.2 36.7 78.4 36.7 91.8 55.6 105.2 36.7 119.3 36.7" class="a"/>
  <path d="M156 17.7c-1.8 2.4-5.2 2.9-7.6 1.1-2.4-1.8-2.9-5.2-1.1-7.6 1.8-2.4 5.2-2.9 7.6-1.1C157.3 11.9 157.8 15.3 156 17.7" class="b"/>
  <path d="M194.3 8.7c-1.8 2.4-5.2 2.9-7.6 1.1-2.4-1.8-2.9-5.2-1.1-7.6 1.8-2.4 5.2-2.9 7.6-1.1C195.6 2.9 196.1 6.3 194.3 8.7" class="b"/>
  <path d="M167.4 42.7c-1.8 2.4-5.2 2.9-7.6 1.1-2.4-1.8-2.9-5.2-1.1-7.6 1.8-2.4 5.2-2.9 7.6-1.1C168.7 37 169.2 40.4 167.4 42.7" class="b"/>
  <polygon points="146 118.2 167.5 118.2 167.5 129.6 134.5 129.6 134.5 72.1 146 72.1" class="c"/>
  <path d="M221.5 108.4c0 12.3-10 22.3-22.3 22.3-12.3 0-22.3-9.9-22.3-22.2V72.1h11.5v36.3c0 2.9 1.2 5.6 3.2 7.6 2.1 2.1 4.8 3.1 7.6 3.1 2.9 0 5.5-1.1 7.6-3.1 2.1-2.1 3.1-4.7 3.2-7.6h-0.1V72.1h11.5v36.3H221.5z" class="c"/>
  <polygon points="275.5 129.7 275.5 94.4 259 109.5 242.5 94.4 242.5 129.7 231 129.7 231 72.1 234.9 72.1 259 93.9 283 72.1 287 72.1 287 129.7" class="c"/>
</svg>
