<svg xmlns="http://www.w3.org/2000/svg" viewBox="0 0 1880 304" fill="#B63027">
          <path fill="#B63027" d="M1735.2700195-.0048828c-86.5500488,0-144.7199707,61.4229813-144.7199707,152.799881,0,88.5400085,59.5,150.4220123,144.7199707,150.4220123,85.1899414,0,144.7299805-61.8830109,144.7299805-150.4220123C1880,61.4180984,1821.8199463-.0048828,1735.2700195-.0048828ZM1735.2700195,242.7120056c-54.0500488,0-73.3300781-46.4680023-73.3300781-89.9199982,0-21.6720123,5.3100586-92.3159065,73.3300781-92.3159065s73.3199463,70.6429024,73.3199463,92.3159065c0,43.4519958-19.2700195,89.9199982-73.3199463,89.9199982ZM1606.3499756,8.4552002c-.4100342-.54919-.9399414-.9959602-1.539917-1.30442-.6101074-.3084502-1.2800293-.4699802-1.960083-.47158h-64.7999268c-.9100342-.00002-1.8000488.2862997-2.5300293.8182497-.7399902.53195-1.2900391,1.2824497-1.5700684,2.1447506l-60.6899414,186.3648033-59.9300537-186.3638039c-.289917-.8606596-.8399658-1.6094599-1.5699463-2.1409798-.7399902-.5315304-1.6199951-.8190203-2.5300293-.8220201h-64.8299561c-.6800537.00776-1.3399658.16993-1.9400635.47402-.5999756.30409-1.1199951.7419901-1.5299072,1.2799802-.4000244.53967-.6600342,1.1652393-.7700195,1.8255997-.0999756.6604004-.0500488,1.3369999.1500244,1.9743996l92.8299561,281.3438034c.2900391.855011.8399658,1.5979919,1.5699463,2.1239929.7299805.5249939,1.6099854.8080139,2.5200195.8070068h70.8100586c.8999023.0029907,1.7799072-.2770081,2.5100098-.8009949.7399902-.5240173,1.289917-1.2650146,1.5799561-2.1190186L1606.9300537,12.2751999c.2199707-.6365995.2799072-1.3167.1799316-1.9820004-.1099854-.6651592-.3699951-1.2955494-.7700195-1.8369999M1211.9000244-.0048828c-86.5500488,0-144.7199707,61.4229813-144.7199707,152.799881,0,88.5400085,59.5098877,150.4220123,144.7199707,150.4220123,85.1899414,0,144.7299805-61.8830109,144.7299805-150.4220123C1356.6300049,61.4180984,1298.4499512-.0048828,1211.9000244-.0048828ZM1211.9000244,242.7120056c-54.0500488,0-73.3300781-46.4680023-73.3300781-89.9199982,0-21.6720123,5.3100586-92.3159065,73.3300781-92.3159065s73.3199463,70.6438942,73.3199463,92.3188972c0,43.4519958-19.2700195,89.9199982-73.3199463,89.9199982M1048.5600586,6.6798301h-58.8210449c-1.1329956.00316-2.2189941.4544501-3.0209961,1.2553701-.8010254.80092-1.2540283,1.8864398-1.2579956,3.0195994v175.1582069L873.3759766,8.6908302c-.3889771-.6135702-.9259644-1.1194-1.5609741-1.4708505-.6359863-.35146-1.3499756-.53721-2.0759888-.5401497h-62.4060059c-.5650024-.0043502-1.1260376.1028399-1.6500244.3154202-.5239868.2125897-1.0009766.5263996-1.4029541.9234796-.4030151.3970699-.7230225.8696203-.9420166,1.3905907-.2200317.5209799-.335022,1.0801792-.3380127,1.6454792v281.3002052c.0109863,1.1369934.473999,2.223999,1.2860107,3.019989.8129883.7969971,1.907959,1.2380066,3.0459595,1.2270203h58.8130493c.5609741.0039978,1.1170044-.1030273,1.6359863-.3150024.5200195-.2109985.9920044-.5230103,1.3909912-.9179993.3989868-.3940125.7150269-.8640137.9320068-1.381012s.3289795-1.071991.3309937-1.6329956V117.4800034l111.677002,177.0000076c.3829956.625.9210205,1.1399841,1.5620117,1.493988s1.3629761.5360107,2.0960083.5280151h62.7900391c.5699463.0059814,1.1199951-.098999,1.6499023-.309021.5200195-.2099915.9899902-.5220032,1.4000244-.9159851.4000244-.3950195.7199707-.8650208.9400635-1.3840027.2199707-.5180054.3299561-1.0750122.3299561-1.6380005V10.9547997c0-.5648994-.1099854-1.1239395-.3299561-1.6449699-.2200928-.5210199-.5400391-.9937601-.9400635-1.3910398-.4000244-.3972697-.8800049-.7112398-1.4000244-.9238701-.5200195-.2126198-1.0799561-.3196998-1.6499023-.3150897ZM792.1539917,236.0149994h-134.9329834V10.9482002c-.007019-1.1353798-.4630127-2.2218103-1.2689819-3.0216503-.8060303-.79984-1.8959961-1.2479701-3.0310059-1.2463598h-62.8130493c-1.1369629-.0029402-2.2289429.4444098-3.0369873,1.2442198-.8070068.7998199-1.2659912,1.8870001-1.2739868,3.0237904v281.3068047c.0120239,1.1329956.4730225,2.2139893,1.2810059,3.0079956s1.8969727,1.2359924,3.0299683,1.2279968h202.0460205c1.1309814.006012,2.2180176-.4370117,3.0239868-1.2309875.8049927-.7929993,1.2640381-1.8740234,1.276001-3.0050049v-52.0200043c-.0139771-1.1289978-.473999-2.2070007-1.2799683-2.9980011-.8049927-.7919922-1.8909912-1.2330017-3.0200195-1.227005M554.8989868,6.67978h-62.8239746c-1.1380005-.00108-2.2290039.4478898-3.0360107,1.2488699-.8080139.8009806-1.2650146,1.8888903-1.2730103,3.0261497v281.3002052c.0120239,1.1340027.4720154,2.21698,1.2790222,3.0119934.8079834.79599,1.8979797,1.2399902,3.0319824,1.2350159h62.8240051c1.132019.0049744,2.2210083-.4400024,3.0269775-1.2360229.8060303-.79599,1.2630005-1.8789978,1.2730103-3.0109863V10.9547997c-.0059814-1.1368093-.4609985-2.2251396-1.2669678-3.0270095-.8060303-.8018703-1.8970337-1.2520204-3.03302-1.2520103M477.7539978,6.67978h-234.072998c-.5630035-.0013099-1.1199951.1082602-1.6399994.3224502-.5200043.21418-.9929962.52879-1.3910065.9258299-.3989868.3970304-.7149963.86871-.9309998,1.3880601-.2159882.5193501-.3279877,1.0761795-.3279877,1.6386795v51.980999c.0059967,1.1326981.4609985,2.2165985,1.2649994,3.0145035.8040009.7977982,1.8919983,1.2445984,3.0249939,1.2425003h81.3410034v225.0622025c.0019836.5599976.1149902,1.1149902.3320007,1.6319885s.5339966.9859924.9320068,1.381012c.3989868.3939819.8710022.7059937,1.3899841.9179993.5190125.2120056,1.0750122.3190002,1.6360168.3160095h62.8129883c.5599976.0029907,1.1159973-.1040039,1.6350098-.3160095.5189819-.2120056.9920044-.5240173,1.3899841-.9179993.3980103-.3950195.7149963-.8640137.9320068-1.381012s.3299866-1.071991.3330078-1.6319885V67.1928024h81.3410034c1.1309814-.0026016,2.2159729-.4509048,3.0189819-1.2477036.803009-.7968979,1.2590027-1.8780975,1.2709961-3.0093002V10.9547997c-.0039978-1.13556-.4579773-2.2233095-1.2619934-3.0252295-.8039856-.8019304-1.8930054-1.2527404-3.0279846-1.2537904M163.4299927,123.2570038l-8.7929993-2.2000046c-67.0434952-16.9369965-75.6164932-19.762001-75.6164932-36.8439026,0-26.3359947,32.399498-27.6519966,38.9045029-27.6519966,34.4550018,0,50.5650024,11.8630028,52.1269989,38.5420036.0709991,1.0861969.5549927,2.1040955,1.3529968,2.8442001.7980042.7401962,1.848999,1.1462936,2.9369965,1.1347961h60.7810059c.5619965.0086975,1.1199951-.0939026,1.6419983-.3019028s.9980011-.517395,1.3999939-.9101944c.401001-.3927994.7220001-.8612061.9410095-1.3783035.2200012-.5171967.3349915-1.0727005.3390045-1.6345978C239.4440002,24.9300995,178.128006-.0048828,120.737999-.0048828,65.5094986-.0048828,9.6064596,30.6951008,9.6064596,89.3261032c0,56.3628922,45.6440401,72.9648972,88.4110422,84.0998917,6.1934967,1.6260071,12.4184952,3.1340027,18.4734955,4.5890045,33.8880005,8.1829987,63.1450043,15.2220001,63.1450043,37.8249969,0,28.5930023-39.2579956,30.8180084-51.3249969,30.8180084-17.7000046,0-58.8865051-4.6640015-58.8865051-47.7730103-.0097961-1.1309967-.4680023-2.2129974-1.2741013-3.0069885-.8061981-.7940063-1.8944016-1.2360077-3.0259018-1.2290039H4.3224602c-1.1266203-.0079956-2.2113602.427002-3.0200002,1.2109985-.808641.7850037-1.2762994,1.8560028-1.3019988,2.9819946-.3210001,28.0900116,8.6999993,51.473999,26.8180394,69.5309906,22.5600014,22.4530029,57.7530022,34.8400269,99.107502,34.8400269,74.7999954,0,123.1339951-37.1000061,123.1339951-94.4870148,0-64.8000031-62.1929932-79.7879944-85.6300049-85.4689941Z"/>
        </svg>